Coordinates
version=1
nRows=11
nColumns=63
inDegrees=yes

Units are S.I. units (second, meters, Newtons, ...)
If the header above contains a line with 'inDegrees', this indicates whether rotational values are in degrees (yes) or radians (no).

endheader
time	pelvis_tilt	pelvis_list	pelvis_rotation	pelvis_tx	pelvis_ty	pelvis_tz	hip_flexion_r	hip_adduction_r	hip_rotation_r	knee_angle_r	knee_angle_r_beta	ankle_angle_r	subtalar_angle_r	mtp_angle_r	hip_flexion_l	hip_adduction_l	hip_rotation_l	knee_angle_l	knee_angle_l_beta	ankle_angle_l	subtalar_angle_l	mtp_angle_l	L5_S1_Flex_Ext	L5_S1_Lat_Bending	L5_S1_axial_rotation	L4_L5_Flex_Ext	L4_L5_Lat_Bending	L4_L5_axial_rotation	L3_L4_Flex_Ext	L3_L4_Lat_Bending	L3_L4_axial_rotation	L2_L3_Flex_Ext	L2_L3_Lat_Bending	L2_L3_axial_rotation	L1_L2_Flex_Ext	L1_L2_Lat_Bending	L1_L2_axial_rotation	L1_T12_Flex_Ext	L1_T12_Lat_Bending	L1_T12_axial_rotation	Abs_r3	Abs_r2	Abs_r1	Abs_t1	Abs_t2	neck_flexion	neck_bending	neck_rotation	arm_flex_r	arm_add_r	arm_rot_r	elbow_flex_r	pro_sup_r	wrist_flex_r	wrist_dev_r	arm_flex_l	arm_add_l	arm_rot_l	elbow_flex_l	pro_sup_l	wrist_flex_l	wrist_dev_l
2.186441	-9.346641	-15.666293	84.208806	0.262008	0.710528	0.733004	32.531677	-0.873573	14.354418	25.835213	0.450910	31.059020	-11.598825	0.000000	24.323898	2.510999	-14.558378	14.665959	0.255969	28.589066	5.329772	0.000000	-0.079253	-0.182950	0.333544	-0.147180	-0.243323	0.354391	-0.130204	-0.444824	0.354391	-0.090578	-0.444824	0.291851	-0.073594	-0.373071	0.271005	-0.045285	-0.283389	0.250158	-0.566095	-2.069563	1.855074	0.000000	0.000000	6.204661	1.935838	-9.357902	41.191030	-22.221498	43.701958	89.902321	75.765192	8.517224	18.924193	56.227791	-6.617824	20.859898	111.013645	88.662700	-2.649135	1.702893
2.203390	-9.517863	-15.895857	83.921634	0.263202	0.709257	0.733274	32.925121	-0.766032	14.689434	26.120321	0.455886	30.912451	-11.879906	0.000000	24.934554	2.420336	-14.471076	15.330740	0.267572	28.927401	4.814497	0.000000	-0.064055	-0.216754	0.488528	-0.118956	-0.288283	0.519061	-0.105235	-0.527017	0.519061	-0.073208	-0.527017	0.427462	-0.059481	-0.442006	0.396929	-0.036601	-0.335753	0.366396	-0.457536	-2.451970	2.717048	0.000000	0.000000	6.301039	2.278194	-10.298366	34.674369	-22.708081	39.405028	98.986721	75.519331	7.485517	20.918317	61.822778	-5.278669	22.112638	101.179314	88.287047	-4.422816	0.560755
2.220339	-9.638888	-16.140058	83.638562	0.264373	0.707766	0.733697	33.349038	-0.602538	15.001427	26.420364	0.461122	30.817899	-12.150707	0.000000	25.681184	2.259258	-14.292554	16.225721	0.283192	29.314972	4.142172	0.000000	-0.050027	-0.242574	0.596606	-0.092906	-0.322624	0.633893	-0.082190	-0.589795	0.633893	-0.057176	-0.589795	0.522030	-0.046455	-0.494658	0.484742	-0.028586	-0.375748	0.447454	-0.357340	-2.744050	3.318142	0.000000	0.000000	6.729136	2.883241	-11.077406	29.222940	-22.690454	34.283034	107.402042	75.121190	6.157298	22.557022	66.349111	-4.494980	23.908053	91.216944	88.066338	-5.895479	0.248763
2.237288	-9.727253	-16.413235	83.371788	0.265463	0.706047	0.734277	33.830894	-0.407457	15.271023	26.747424	0.466831	30.793244	-12.397540	0.000000	26.566864	2.054371	-14.028466	17.322134	0.302328	29.729304	3.332041	0.000000	-0.036459	-0.260509	0.654921	-0.067708	-0.346478	0.695854	-0.059899	-0.633403	0.695854	-0.041669	-0.633403	0.573056	-0.033856	-0.531231	0.532123	-0.020833	-0.403529	0.491191	-0.260425	-2.946935	3.642475	0.000000	0.000000	7.522242	3.743554	-11.717763	25.222237	-22.123732	28.784309	114.499852	74.498554	4.518577	23.464708	69.681330	-4.426828	26.379105	81.715961	87.744733	-6.879464	0.889290
2.254237	-9.811269	-16.709041	83.136737	0.266461	0.704155	0.734999	34.370298	-0.216455	15.500245	27.108515	0.473133	30.842059	-12.638196	0.000000	27.563960	1.855957	-13.660575	18.573739	0.324173	30.126317	2.368703	0.000000	-0.024519	-0.273962	0.667605	-0.045534	-0.364370	0.709331	-0.040282	-0.666111	0.709331	-0.028022	-0.666111	0.584155	-0.022768	-0.558663	0.542429	-0.014010	-0.424367	0.500704	-0.175134	-3.099113	3.713021	0.000000	0.000000	8.649307	4.844063	-12.291648	22.813429	-21.034097	23.115558	119.952870	74.263938	2.721251	23.683206	71.845460	-5.191848	29.631242	73.199695	87.109294	-7.375539	2.471599
2.271186	-9.821622	-17.051613	82.945223	0.267179	0.702141	0.735847	34.958632	0.010274	15.623185	27.442386	0.478960	30.917404	-12.816775	0.000000	28.673335	1.605773	-13.215406	19.946848	0.348138	30.524920	1.340504	0.000000	-0.011704	-0.270266	0.634077	-0.021736	-0.359454	0.673707	-0.019229	-0.657124	0.673707	-0.013377	-0.657124	0.554818	-0.010869	-0.551126	0.515188	-0.006688	-0.418642	0.475558	-0.083602	-3.057302	3.526547	0.000000	0.000000	10.053615	6.026030	-12.722783	22.256324	-19.569052	18.134903	123.542124	74.925655	0.885934	23.011839	72.759947	-6.695608	33.350027	66.150294	86.224382	-7.033076	4.974326
2.288136	-9.771021	-17.430646	82.855004	0.267523	0.700077	0.736815	35.585671	0.220749	15.590041	27.762616	0.484549	31.036442	-12.932709	0.000000	29.856027	1.360400	-12.653497	21.375822	0.373078	30.884503	0.267781	0.000000	0.001251	-0.251464	0.547261	0.002324	-0.334447	0.581464	0.002056	-0.611409	0.581464	0.001430	-0.611409	0.478853	0.001162	-0.512785	0.444649	0.000715	-0.389517	0.410445	0.008939	-2.844609	3.043699	0.000000	0.000000	11.650753	7.280669	-13.002444	23.607567	-17.849307	13.956732	125.233559	76.029979	-0.920266	21.750006	72.384069	-8.847003	37.109275	60.956936	85.300042	-5.861896	8.023919
2.305085	-9.707590	-17.835129	82.830974	0.267526	0.698003	0.737899	36.252492	0.388690	15.463888	28.083398	0.490148	31.190704	-13.011001	0.000000	31.063163	1.154978	-12.046230	22.784295	0.397661	31.183651	-0.800945	0.000000	0.014494	-0.223633	0.420451	0.026917	-0.297432	0.446729	0.023812	-0.543741	0.446729	0.016565	-0.543741	0.367895	0.013459	-0.456032	0.341617	0.008282	-0.346407	0.315338	0.103530	-2.529781	2.338423	0.000000	0.000000	13.359168	8.548079	-13.156138	26.803748	-15.992179	10.456007	125.044331	77.258888	-2.614050	20.495298	70.748409	-11.517041	40.634094	57.864544	84.368525	-4.328787	11.057159
2.322034	-9.611477	-18.250142	82.895137	0.267133	0.696003	0.739054	36.922565	0.510238	15.218335	28.382286	0.495364	31.365145	-13.056500	0.000000	32.247894	0.987946	-11.413255	24.118741	0.420951	31.414350	-1.810727	0.000000	0.027811	-0.184958	0.265589	0.051647	-0.245995	0.282189	0.045690	-0.449708	0.282189	0.031785	-0.449708	0.232391	0.025825	-0.377167	0.215791	0.015891	-0.286501	0.199192	0.198649	-2.092286	1.477128	0.000000	0.000000	15.059606	9.718907	-13.231836	31.638792	-14.212940	7.703804	122.952634	78.144421	-4.061748	19.488915	67.962884	-14.467564	43.793563	56.935794	83.412586	-2.972975	13.583940
2.338983	-9.498513	-18.644002	83.035107	0.266367	0.694185	0.740228	37.553620	0.574259	14.891222	28.649518	0.500028	31.547445	-13.087649	0.000000	33.337770	0.879923	-10.783761	25.306368	0.441679	31.556268	-2.738328	0.000000	0.039936	-0.138582	0.096325	0.074166	-0.184314	0.102346	0.065612	-0.336948	0.102346	0.045643	-0.336948	0.084285	0.037085	-0.282596	0.078264	0.022820	-0.214663	0.072244	0.285262	-1.567665	0.535732	0.000000	0.000000	16.621594	10.728446	-13.255256	37.713534	-12.619372	5.741476	118.986954	78.661750	-4.990857	18.829915	64.271763	-17.470067	46.504794	58.169072	82.256266	-2.111522	15.628074
2.355932	-9.395405	-18.991353	83.224589	0.265344	0.692660	0.741328	38.103048	0.568182	14.519388	28.860303	0.503707	31.736781	-13.081479	0.000000	34.262760	0.839782	-10.232416	26.274020	0.458568	31.608626	-3.494015	0.000000	0.051154	-0.091381	-0.070766	0.094999	-0.121537	-0.075189	0.084041	-0.222183	-0.075189	0.058464	-0.222183	-0.061920	0.047502	-0.186344	-0.057497	0.029230	-0.141549	-0.053074	0.365390	-1.033718	-0.393579	0.000000	0.000000	17.950791	11.582749	-13.345011	44.450080	-11.358778	4.697592	113.398980	78.834150	-5.460616	18.336435	59.999652	-20.308859	48.643947	61.457012	81.077526	-1.413657	17.377900
